# xmcd
#
# Track frame offsets: 
#        150
#        3336
#        27601
#        51547
#        75619
#        94314
#        108787
#        123742
#        144590
#        149678
#        172859
#
# Disc length: 2709 seconds
#
# Revision: 1
# Processed by: cddbd v1.5.1PL0 Copyright (c) Steve Scherf et al.
# Submitted via: ExactAudioCopy v0.95a5
#
DISCID=9a0a930b
DTITLE=Comunidade da Graça Ubatuba - Aviva
DYEAR=2005
DGENRE=Gospel
TTITLE0=Abertura
TTITLE1=Lamento
TTITLE2=Voltai
TTITLE3=Perdão
TTITLE4=Chuva
TTITLE5=Deus é bom
TTITLE6=Por tua salvação
TTITLE7=Vem, aviva!
TTITLE8=Palavra de desafio
TTITLE9=Brasil
TTITLE10=Santidade
EXTD=OTIMO
EXTT0=
EXTT1=
EXTT2=
EXTT3=
EXTT4=
EXTT5=
EXTT6=
EXTT7=
EXTT8=
EXTT9=
EXTT10=
PLAYORDER=
